<svg width="32" height="32" viewBox="0 0 32 32" fill="none" xmlns="http://www.w3.org/2000/svg">
    <rect width="32" height="32" rx="16" fill="url(#paint0_linear_3050_141)" />
    <path
        d="M16 16C17.6569 16 19 14.6569 19 13C19 11.3431 17.6569 10 16 10C14.3431 10 13 11.3431 13 13C13 14.6569 14.3431 16 16 16Z"
        stroke="white" stroke-width="1.5" />
    <path
        d="M16 26C21.5228 26 26 21.5228 26 16C26 10.4772 21.5228 6 16 6C10.4772 6 6 10.4772 6 16C6 21.5228 10.4772 26 16 26Z"
        stroke="white" stroke-width="1.5" />
    <path d="M21.9696 24C21.8105 21.1085 20.9252 19 16.0004 19C11.0757 19 10.1904 21.1085 10.0312 24" stroke="white"
        stroke-width="1.5" stroke-linecap="round" />
    <defs>
        <linearGradient id="paint0_linear_3050_141" x1="16" y1="0" x2="16" y2="32" gradientUnits="userSpaceOnUse">
            <stop stop-color="#0081A7" />
            <stop offset="1" stop-color="#00AFB9" />
        </linearGradient>
    </defs>
</svg>