<svg width="32" height="32" viewBox="0 0 32 32" fill="none" xmlns="http://www.w3.org/2000/svg">
    <rect width="32" height="32" rx="16" fill="url(#paint0_linear_3047_123)" />
    <path fill-rule="evenodd" clip-rule="evenodd"
        d="M16.0014 21.454C19.0139 21.454 21.456 19.0119 21.456 15.9995C21.456 12.987 19.0139 10.5449 16.0014 10.5449C12.989 10.5449 10.5469 12.987 10.5469 15.9995C10.5469 19.0119 12.989 21.454 16.0014 21.454ZM16.0014 19.6358C18.0097 19.6358 19.6378 18.0077 19.6378 15.9995C19.6378 13.9912 18.0097 12.3631 16.0014 12.3631C13.9931 12.3631 12.3651 13.9912 12.3651 15.9995C12.3651 18.0077 13.9931 19.6358 16.0014 19.6358Z"
        fill="white" />
    <path
        d="M21.456 9.63672C20.9539 9.63672 20.5469 10.0437 20.5469 10.5458C20.5469 11.0479 20.9539 11.4549 21.456 11.4549C21.9581 11.4549 22.3651 11.0479 22.3651 10.5458C22.3651 10.0437 21.9581 9.63672 21.456 9.63672Z"
        fill="white" />
    <path fill-rule="evenodd" clip-rule="evenodd"
        d="M6.59451 8.97824C6 10.145 6 11.6724 6 14.7273V17.2727C6 20.3275 6 21.855 6.59451 23.0217C7.11745 24.0481 7.95189 24.8825 8.97824 25.4055C10.145 26 11.6724 26 14.7273 26H17.2727C20.3275 26 21.855 26 23.0217 25.4055C24.0481 24.8825 24.8825 24.0481 25.4055 23.0217C26 21.855 26 20.3275 26 17.2727V14.7273C26 11.6724 26 10.145 25.4055 8.97824C24.8825 7.95189 24.0481 7.11745 23.0217 6.59451C21.855 6 20.3275 6 17.2727 6H14.7273C11.6724 6 10.145 6 8.97824 6.59451C7.95189 7.11745 7.11745 7.95189 6.59451 8.97824ZM17.2727 7.81818H14.7273C13.1699 7.81818 12.1111 7.8196 11.2928 7.88645C10.4957 7.95158 10.088 8.06963 9.80367 8.21452C9.11945 8.56315 8.56315 9.11945 8.21452 9.80367C8.06963 10.088 7.95158 10.4957 7.88645 11.2928C7.8196 12.1111 7.81818 13.1699 7.81818 14.7273V17.2727C7.81818 18.8302 7.8196 19.8888 7.88645 20.7072C7.95158 21.5044 8.06963 21.912 8.21452 22.1964C8.56315 22.8805 9.11945 23.4368 9.80367 23.7855C10.088 23.9304 10.4957 24.0485 11.2928 24.1135C12.1111 24.1804 13.1699 24.1818 14.7273 24.1818H17.2727C18.8302 24.1818 19.8888 24.1804 20.7072 24.1135C21.5044 24.0485 21.912 23.9304 22.1964 23.7855C22.8805 23.4368 23.4368 22.8805 23.7855 22.1964C23.9304 21.912 24.0485 21.5044 24.1135 20.7072C24.1804 19.8888 24.1818 18.8302 24.1818 17.2727V14.7273C24.1818 13.1699 24.1804 12.1111 24.1135 11.2928C24.0485 10.4957 23.9304 10.088 23.7855 9.80367C23.4368 9.11945 22.8805 8.56315 22.1964 8.21452C21.912 8.06963 21.5044 7.95158 20.7072 7.88645C19.8888 7.8196 18.8302 7.81818 17.2727 7.81818Z"
        fill="white" />
    <defs>
        <linearGradient id="paint0_linear_3047_123" x1="16" y1="0" x2="16" y2="32" gradientUnits="userSpaceOnUse">
            <stop stop-color="#4F60D2" />
            <stop offset="0.5" stop-color="#AA35B2" />
            <stop offset="0.75" stop-color="#D15571" />
            <stop offset="1" stop-color="#FED372" />
        </linearGradient>
    </defs>
</svg>