<svg width="32" height="32" viewBox="0 0 32 32" fill="none" xmlns="http://www.w3.org/2000/svg">
    <rect width="32" height="32" rx="16" fill="url(#paint0_linear_3047_123)" />
    <path fill-rule="evenodd" clip-rule="evenodd"
        d="M15.9986 22.546C19.6135 22.546 22.544 19.6155 22.544 16.0005C22.544 12.3856 19.6135 9.45508 15.9986 9.45508C12.3836 9.45508 9.45312 12.3856 9.45312 16.0005C9.45312 19.6155 12.3836 22.546 15.9986 22.546ZM15.9986 20.3642C18.4085 20.3642 20.3622 18.4105 20.3622 16.0005C20.3622 13.5906 18.4085 11.6369 15.9986 11.6369C13.5886 11.6369 11.6349 13.5906 11.6349 16.0005C11.6349 18.4105 13.5886 20.3642 15.9986 20.3642Z"
        fill="white" />
    <path
        d="M22.544 8.36328C21.9415 8.36328 21.4531 8.8517 21.4531 9.45419C21.4531 10.0567 21.9415 10.5451 22.544 10.5451C23.1465 10.5451 23.6349 10.0567 23.6349 9.45419C23.6349 8.8517 23.1465 8.36328 22.544 8.36328Z"
        fill="white" />
    <path fill-rule="evenodd" clip-rule="evenodd"
        d="M4.71341 7.57388C4 8.97403 4 10.8069 4 14.4727V17.5273C4 21.1931 4 23.026 4.71341 24.4261C5.34095 25.6577 6.34227 26.6591 7.57388 27.2865C8.97403 28 10.8069 28 14.4727 28H17.5273C21.1931 28 23.026 28 24.4261 27.2865C25.6577 26.6591 26.6591 25.6577 27.2865 24.4261C28 23.026 28 21.1931 28 17.5273V14.4727C28 10.8069 28 8.97403 27.2865 7.57388C26.6591 6.34227 25.6577 5.34095 24.4261 4.71341C23.026 4 21.1931 4 17.5273 4H14.4727C10.8069 4 8.97403 4 7.57388 4.71341C6.34227 5.34095 5.34095 6.34227 4.71341 7.57388ZM17.5273 6.18182H14.4727C12.6038 6.18182 11.3334 6.18352 10.3514 6.26375C9.39481 6.3419 8.90564 6.48355 8.56441 6.65742C7.74333 7.07579 7.07579 7.74333 6.65742 8.56441C6.48355 8.90564 6.3419 9.39481 6.26375 10.3514C6.18352 11.3334 6.18182 12.6038 6.18182 14.4727V17.5273C6.18182 19.3962 6.18352 20.6666 6.26375 21.6486C6.3419 22.6052 6.48355 23.0944 6.65742 23.4356C7.07579 24.2567 7.74333 24.9242 8.56441 25.3425C8.90564 25.5164 9.39481 25.6581 10.3514 25.7363C11.3334 25.8164 12.6038 25.8182 14.4727 25.8182H17.5273C19.3962 25.8182 20.6666 25.8164 21.6486 25.7363C22.6052 25.6581 23.0944 25.5164 23.4356 25.3425C24.2567 24.9242 24.9242 24.2567 25.3425 23.4356C25.5164 23.0944 25.6581 22.6052 25.7363 21.6486C25.8164 20.6666 25.8182 19.3962 25.8182 17.5273V14.4727C25.8182 12.6038 25.8164 11.3334 25.7363 10.3514C25.6581 9.39481 25.5164 8.90564 25.3425 8.56441C24.9242 7.74333 24.2567 7.07579 23.4356 6.65742C23.0944 6.48355 22.6052 6.3419 21.6486 6.26375C20.6666 6.18352 19.3962 6.18182 17.5273 6.18182Z"
        fill="white" />
    <defs>
        <linearGradient id="paint0_linear_3047_123" x1="16" y1="0" x2="16" y2="32" gradientUnits="userSpaceOnUse">
            <stop stop-color="#4F60D2" />
            <stop offset="0.5" stop-color="#AA35B2" />
            <stop offset="0.75" stop-color="#D15571" />
            <stop offset="1" stop-color="#FED372" />
        </linearGradient>
    </defs>
</svg>