<svg width="32" height="32" viewBox="0 0 32 32" fill="none" xmlns="http://www.w3.org/2000/svg">
    <rect width="32" height="32" rx="16" fill="#1877F2" />
    <path
        d="M16 4C9.39999 4 4 9.38799 4 16.024C4 22.024 8.39199 27.004 14.128 27.904V19.504H11.08V16.024H14.128V13.372C14.128 10.36 15.916 8.70399 18.664 8.70399C19.972 8.70399 21.34 8.93199 21.34 8.93199V11.896H19.828C18.34 11.896 17.872 12.82 17.872 13.768V16.024H21.208L20.668 19.504H17.872V27.904C20.6997 27.4574 23.2746 26.0146 25.1319 23.836C26.9891 21.6575 28.0064 18.8867 28 16.024C28 9.38799 22.6 4 16 4Z"
        fill="white" />
</svg>