<svg width="32" height="32" viewBox="0 0 32 32" fill="none" xmlns="http://www.w3.org/2000/svg">
    <rect width="32" height="32" rx="16" fill="url(#paint0_linear_3050_146)" />
    <path
        d="M16 9.75941L15.4973 10.2432C15.6288 10.3799 15.8103 10.4571 16 10.4571C16.1897 10.4571 16.3712 10.3799 16.5027 10.2432L16 9.75941ZM13.6056 21.6862C12.1957 20.5747 10.654 19.4893 9.43097 18.1121C8.23183 16.7618 7.39535 15.1863 7.39535 13.1422H6C6 15.6217 7.03302 17.5133 8.38765 19.0386C9.71835 20.5371 11.4147 21.7358 12.7418 22.782L13.6056 21.6862ZM7.39535 13.1422C7.39535 11.1414 8.52593 9.46349 10.0692 8.75807C11.5684 8.07275 13.5829 8.25424 15.4973 10.2432L16.5027 9.27559C14.2312 6.91558 11.5945 6.52662 9.48908 7.48902C7.42764 8.4313 6 10.6193 6 13.1422H7.39535ZM12.7418 22.782C13.2183 23.1576 13.7298 23.5582 14.2482 23.8611C14.7664 24.1638 15.3578 24.41 16 24.41V23.0146C15.712 23.0146 15.3731 22.9024 14.9522 22.6563C14.5314 22.4104 14.095 22.0719 13.6056 21.6862L12.7418 22.782ZM19.2582 22.782C20.5853 21.7358 22.2817 20.5371 23.6124 19.0386C24.967 17.5133 26 15.6217 26 13.1422H24.6047C24.6047 15.1863 23.7682 16.7618 22.569 18.1121C21.346 19.4893 19.8043 20.5747 18.3944 21.6862L19.2582 22.782ZM26 13.1422C26 10.6193 24.5724 8.4313 22.5109 7.48902C20.4055 6.52662 17.7688 6.91558 15.4973 9.27559L16.5027 10.2432C18.417 8.25424 20.4315 8.07275 21.9308 8.75807C23.474 9.46349 24.6047 11.1414 24.6047 13.1422H26ZM18.3944 21.6862C17.905 22.0719 17.4686 22.4104 17.0478 22.6563C16.6269 22.9024 16.288 23.0146 16 23.0146V24.41C16.6422 24.41 17.2336 24.1638 17.7518 23.8611C18.2702 23.5582 18.7817 23.1576 19.2582 22.782L18.3944 21.6862Z"
        fill="white" />
    <defs>
        <linearGradient id="paint0_linear_3050_146" x1="16" y1="0" x2="16" y2="32" gradientUnits="userSpaceOnUse">
            <stop stop-color="#0081A7" />
            <stop offset="1" stop-color="#00AFB9" />
        </linearGradient>
    </defs>
</svg>