<svg width="32" height="32" viewBox="0 0 32 32" fill="none" xmlns="http://www.w3.org/2000/svg">
    <rect width="32" height="32" rx="16" fill="#1877F2" />
    <path
        d="M16 6C10.5 6 6 10.49 6 16.02C6 21.02 9.65999 25.17 14.44 25.92V18.92H11.9V16.02H14.44V13.81C14.44 11.3 15.93 9.91999 18.22 9.91999C19.31 9.91999 20.45 10.11 20.45 10.11V12.58H19.19C17.95 12.58 17.56 13.35 17.56 14.14V16.02H20.34L19.89 18.92H17.56V25.92C19.9164 25.5478 22.0622 24.3455 23.6099 22.53C25.1576 20.7146 26.0054 18.4056 26 16.02C26 10.49 21.5 6 16 6Z"
        fill="white" />
</svg>