<svg width="32" height="32" viewBox="0 0 32 32" fill="none" xmlns="http://www.w3.org/2000/svg">
    <rect width="32" height="32" rx="16" fill="url(#paint0_linear_3049_130)" />
    <path fill-rule="evenodd" clip-rule="evenodd"
        d="M14.4147 21.286C10.4824 21.286 7.29472 18.1538 7.29472 14.2839C7.29472 10.4139 10.4824 7.27543 14.4147 7.27543C18.3469 7.27543 21.5353 10.4139 21.5353 14.2839C21.5353 18.1538 18.3469 21.286 14.4147 21.286ZM25.8101 24.9122L20.6469 19.8293C21.9985 18.3601 22.8294 16.422 22.8294 14.2839C22.8294 9.70742 19.0621 6 14.4147 6C9.76722 6 6 9.70742 6 14.2839C6 18.854 9.76722 22.5614 14.4147 22.5614C16.4227 22.5614 18.2644 21.8675 19.711 20.7109L24.8949 25.8124C25.1481 26.0625 25.5575 26.0625 25.8101 25.8124C26.0633 25.5686 26.0633 25.1623 25.8101 24.9122Z"
        fill="white" />
    <defs>
        <linearGradient id="paint0_linear_3049_130" x1="16" y1="0" x2="16" y2="32" gradientUnits="userSpaceOnUse">
            <stop stop-color="#0081A7" />
            <stop offset="1" stop-color="#00AFB9" />
        </linearGradient>
    </defs>
</svg>