<svg width="32" height="32" viewBox="0 0 32 32" fill="none" xmlns="http://www.w3.org/2000/svg">
    <rect width="32" height="32" rx="16" fill="white" />
    <path
        d="M22.9777 18.8882C22.4856 18.3759 21.8921 18.1019 21.2631 18.1019C20.6392 18.1019 20.0406 18.3708 19.5282 18.8831L17.9252 20.481C17.7934 20.41 17.6615 20.3441 17.5346 20.2781C17.352 20.1868 17.1796 20.1006 17.0324 20.0093C15.5309 19.0556 14.1663 17.8128 12.8576 16.2047C12.2235 15.4032 11.7974 14.7286 11.4879 14.0437C11.9039 13.6633 12.2894 13.2676 12.6648 12.8872C12.8069 12.7451 12.9489 12.598 13.0909 12.456C14.1562 11.3907 14.1562 10.0109 13.0909 8.94564L11.7061 7.56078C11.5488 7.40353 11.3865 7.2412 11.2343 7.07887C10.9299 6.76436 10.6104 6.43971 10.2806 6.13534C9.78858 5.64836 9.20014 5.38965 8.58126 5.38965C7.96239 5.38965 7.36381 5.64836 6.85653 6.13534C6.85146 6.14041 6.85146 6.14041 6.84639 6.14549L5.12166 7.88544C4.47235 8.53475 4.10204 9.32609 4.02087 10.2443C3.89913 11.7255 4.33538 13.1053 4.67018 14.0082C5.49197 16.225 6.71957 18.2795 8.55083 20.481C10.7727 23.1341 13.446 25.2291 16.4998 26.7053C17.6665 27.2582 19.2239 27.9126 20.9638 28.0242C21.0703 28.0293 21.1819 28.0343 21.2834 28.0343C22.4552 28.0343 23.4393 27.6133 24.2104 26.7763C24.2154 26.7662 24.2256 26.7611 24.2307 26.7509C24.4944 26.4314 24.7988 26.1422 25.1184 25.8328C25.3365 25.6248 25.5597 25.4067 25.7778 25.1784C26.28 24.6559 26.5438 24.0472 26.5438 23.4232C26.5438 22.7942 26.275 22.1906 25.7626 21.6833L22.9777 18.8882ZM24.7937 24.2298C24.7887 24.2349 24.7887 24.2298 24.7937 24.2298C24.5959 24.4429 24.393 24.6356 24.1749 24.8487C23.8451 25.1632 23.5103 25.4929 23.1958 25.8632C22.6835 26.4111 22.0798 26.6698 21.2885 26.6698C21.2124 26.6698 21.1312 26.6698 21.0551 26.6647C19.5485 26.5683 18.1484 25.9799 17.0984 25.4777C14.2272 24.0878 11.7061 22.1145 9.61103 19.6136C7.88123 17.5287 6.72464 15.6011 5.95866 13.5314C5.48689 12.2683 5.31442 11.2842 5.39051 10.3559C5.44124 9.76235 5.66951 9.27029 6.09055 8.84926L7.82035 7.11945C8.06892 6.88611 8.3327 6.75929 8.59141 6.75929C8.91099 6.75929 9.1697 6.95205 9.33203 7.11438C9.3371 7.11945 9.34218 7.12452 9.34725 7.1296C9.65669 7.41874 9.9509 7.71804 10.2603 8.03762C10.4176 8.19995 10.5799 8.36227 10.7423 8.52967L12.1271 9.91453C12.6648 10.4522 12.6648 10.9494 12.1271 11.4871C11.98 11.6342 11.838 11.7813 11.6909 11.9233C11.2647 12.3596 10.8589 12.7654 10.4176 13.1611C10.4075 13.1712 10.3973 13.1763 10.3922 13.1864C9.95598 13.6227 10.0371 14.0488 10.1284 14.338C10.1335 14.3532 10.1386 14.3684 10.1437 14.3836C10.5038 15.2561 11.0111 16.0779 11.7822 17.0569L11.7872 17.062C13.1873 18.7867 14.6635 20.131 16.2918 21.1608C16.4998 21.2927 16.7129 21.3992 16.9158 21.5007C17.0984 21.592 17.2709 21.6782 17.418 21.7695C17.4383 21.7797 17.4586 21.7949 17.4788 21.805C17.6513 21.8913 17.8136 21.9318 17.981 21.9318C18.4021 21.9318 18.6659 21.6681 18.7521 21.5818L20.487 19.847C20.6595 19.6745 20.9334 19.4665 21.253 19.4665C21.5675 19.4665 21.8262 19.6643 21.9834 19.8368C21.9885 19.8419 21.9885 19.8419 21.9936 19.847L24.7887 22.642C25.3112 23.1594 25.3112 23.6921 24.7937 24.2298Z"
        fill="url(#paint0_linear_3046_101)" />
    <path
        d="M16.9778 9.71789C18.3068 9.94109 19.5141 10.5701 20.4779 11.5339C21.4418 12.4978 22.0657 13.7051 22.294 15.0341C22.3498 15.3689 22.6389 15.6023 22.9687 15.6023C23.0092 15.6023 23.0448 15.5972 23.0853 15.5921C23.4607 15.5312 23.7093 15.1762 23.6484 14.8008C23.3745 13.1927 22.6136 11.7267 21.4519 10.565C20.2903 9.40338 18.8242 8.64247 17.2162 8.36854C16.8408 8.30767 16.4908 8.55623 16.4248 8.92654C16.3589 9.29685 16.6024 9.65702 16.9778 9.71789Z"
        fill="url(#paint1_linear_3046_101)" />
    <path
        d="M27.9889 14.6023C27.5374 11.9543 26.2895 9.5448 24.372 7.6273C22.4545 5.70981 20.045 4.46191 17.397 4.01044C17.0267 3.94449 16.6767 4.19813 16.6107 4.56844C16.5499 4.94382 16.7984 5.29384 17.1738 5.35979C19.5377 5.76053 21.6936 6.88161 23.4082 8.59112C25.1228 10.3057 26.2388 12.4616 26.6395 14.8255C26.6953 15.1603 26.9845 15.3937 27.3142 15.3937C27.3548 15.3937 27.3903 15.3886 27.4309 15.3835C27.8012 15.3277 28.0548 14.9726 27.9889 14.6023Z"
        fill="url(#paint2_linear_3046_101)" />
    <defs>
        <linearGradient id="paint0_linear_3046_101" x1="15.2719" y1="5.38965" x2="15.2719" y2="28.0343"
            gradientUnits="userSpaceOnUse">
            <stop stop-color="#0081A7" />
            <stop offset="1" stop-color="#00AFB9" />
        </linearGradient>
        <linearGradient id="paint1_linear_3046_101" x1="20.0358" y1="8.35938" x2="20.0358" y2="15.6023"
            gradientUnits="userSpaceOnUse">
            <stop stop-color="#0081A7" />
            <stop offset="1" stop-color="#00AFB9" />
        </linearGradient>
        <linearGradient id="paint2_linear_3046_101" x1="22.3004" y1="4" x2="22.3004" y2="15.3937"
            gradientUnits="userSpaceOnUse">
            <stop stop-color="#0081A7" />
            <stop offset="1" stop-color="#00AFB9" />
        </linearGradient>
    </defs>
</svg>