<svg width="32" height="32" viewBox="0 0 32 32" fill="none" xmlns="http://www.w3.org/2000/svg">
    <rect width="32" height="32" rx="16" fill="#FF0000" />
    <path fill-rule="evenodd" clip-rule="evenodd"
        d="M21.668 23.0362C23.9724 23.1203 25.91 21.3193 26 19.0096V13.0294C25.91 10.7198 23.9724 8.91874 21.668 9.00283H10.332C8.02763 8.91874 6.08998 10.7198 6 13.0294V19.0096C6.08998 21.3193 8.02763 23.1203 10.332 23.0362H21.668Z"
        stroke="white" stroke-width="1.5" stroke-linecap="round" stroke-linejoin="round" />
    <path fill-rule="evenodd" clip-rule="evenodd"
        d="M15.5236 13.1902L18.6846 15.3433C18.8894 15.4632 19.0153 15.683 19.0153 15.9207C19.0153 16.1584 18.8894 16.3783 18.6846 16.498L15.5236 18.8536C14.9236 19.2616 14.0156 18.9138 14.0156 18.2763V13.7656C14.0156 13.1311 14.9246 12.7823 15.5236 13.1902Z"
        stroke="white" stroke-width="1.5" stroke-linecap="round" stroke-linejoin="round" />
</svg>